<svg width="90" height="90" viewBox="0 0 90 90" fill="none" xmlns="http://www.w3.org/2000/svg">
<g filter="url(#filter0_b)">
<rect width="90" height="90" rx="45" fill="#070B1B" fill-opacity="0.3"/>
<g filter="url(#filter1_f)">
<path d="M32.1679 53.8545H30.5295V35.7089H32.1679M32.1679 53.8545V35.7089M32.1679 53.8545C33.4671 53.8545 35.4816 53.8545 37.6974 53.8545M32.1679 35.7089V30.1415M53.2621 36.9461V46.0189C53.2621 49.3181 50.5997 53.8545 46.2989 53.8545C43.8584 53.8545 40.6046 53.8545 37.6974 53.8545M53.2621 36.9461C52.0333 36.1213 50.1901 35.5027 47.7325 35.5027C45.275 35.5027 40.0185 35.5027 37.6974 35.5027M53.2621 36.9461C55.392 38.1008 57.266 39.8329 58.382 41.6887M37.6974 35.5027V30.1415M37.6974 35.5027V53.8545M49.9853 30.1415C49.5757 29.7291 48.0192 28.6981 46.7085 28.6981C45.3978 28.6981 40.2916 28.6981 37.6974 28.6981V30.1415M49.9853 30.1415C48.8384 30.1415 41.179 30.1415 37.6974 30.1415M49.9853 30.1415C52.8525 30.5539 55.5148 31.7911 58.2522 33.4407C59.3877 34.2655 62.0274 36.575 63.5019 39.2143C65.3451 42.5135 65.7547 45.8127 65.7547 48.2871C65.7547 50.7615 64.9355 54.6793 63.7067 56.7413C62.478 58.8033 61.0444 60.4529 59.406 61.8963C57.7676 63.3397 54.9004 64.7831 53.2621 65.4017C51.6237 66.0202 49.9853 66.2264 48.7565 66.2264C47.7735 66.2264 37.2879 66.2264 32.1679 66.2264V59.2157M32.1679 59.2157C29.423 59.2157 26.8978 59.2157 25 59.2157V30.1415H32.1679M32.1679 59.2157C33.9554 59.2157 35.8361 59.2157 37.6974 59.2157M37.6974 59.2157C41.9226 59.2157 46.0478 59.2157 48.7565 59.2157C54.4908 59.2157 58.382 52.8235 58.382 47.6685C58.382 46.2855 58.3839 43.9692 58.382 41.6887M37.6974 59.2157V60.6591C40.2916 60.6591 46.1351 60.6591 48.7565 60.6591C52.4429 60.6591 56.4569 57.7723 58.1772 54.8855C59.8975 51.9987 60.2252 50.3491 60.0204 46.8437C59.9361 45.4003 59.374 43.3383 58.382 41.6887M58.382 41.6887C58.3791 38.1889 58.3522 34.494 58.1772 32.2035C57.7991 27.2547 52.8525 23.8672 51.0093 23.337C50.5314 23.1995 49.4938 22.9246 48.3469 22.9246H32.1679V30.1415" stroke="#087DEA"/>
</g>
<path d="M32.1679 53.8545H30.5295V35.7089H32.1679M32.1679 53.8545V35.7089M32.1679 53.8545C33.4671 53.8545 35.4816 53.8545 37.6974 53.8545M32.1679 35.7089V30.1415M53.2621 36.9461V46.0189C53.2621 49.3181 50.5997 53.8545 46.2989 53.8545C43.8584 53.8545 40.6046 53.8545 37.6974 53.8545M53.2621 36.9461C52.0333 36.1213 50.1901 35.5027 47.7325 35.5027C45.275 35.5027 40.0185 35.5027 37.6974 35.5027M53.2621 36.9461C55.392 38.1008 57.266 39.8329 58.382 41.6887M37.6974 35.5027V30.1415M37.6974 35.5027V53.8545M49.9853 30.1415C49.5757 29.7291 48.0192 28.6981 46.7085 28.6981C45.3978 28.6981 40.2916 28.6981 37.6974 28.6981V30.1415M49.9853 30.1415C48.8384 30.1415 41.179 30.1415 37.6974 30.1415M49.9853 30.1415C52.8525 30.5539 55.5148 31.7911 58.2522 33.4407C59.3877 34.2655 62.0274 36.575 63.5019 39.2143C65.3451 42.5135 65.7547 45.8127 65.7547 48.2871C65.7547 50.7615 64.9355 54.6793 63.7067 56.7413C62.478 58.8033 61.0444 60.4529 59.406 61.8963C57.7676 63.3397 54.9004 64.7831 53.2621 65.4017C51.6237 66.0202 49.9853 66.2264 48.7565 66.2264C47.7735 66.2264 37.2879 66.2264 32.1679 66.2264V59.2157M32.1679 59.2157C29.423 59.2157 26.8978 59.2157 25 59.2157V30.1415H32.1679M32.1679 59.2157C33.9554 59.2157 35.8361 59.2157 37.6974 59.2157M37.6974 59.2157C41.9226 59.2157 46.0478 59.2157 48.7565 59.2157C54.4908 59.2157 58.382 52.8235 58.382 47.6685C58.382 46.2855 58.3839 43.9692 58.382 41.6887M37.6974 59.2157V60.6591C40.2916 60.6591 46.1351 60.6591 48.7565 60.6591C52.4429 60.6591 56.4569 57.7723 58.1772 54.8855C59.8975 51.9987 60.2252 50.3491 60.0204 46.8437C59.9361 45.4003 59.374 43.3383 58.382 41.6887M58.382 41.6887C58.3791 38.1889 58.3522 34.494 58.1772 32.2035C57.7991 27.2547 52.8525 23.8672 51.0093 23.337C50.5314 23.1995 49.4938 22.9246 48.3469 22.9246H32.1679V30.1415" stroke="#087DEA"/>
<rect x="0.5" y="0.5" width="89" height="89" rx="44.5" stroke="#087DEA"/>
</g>
<defs>
<filter id="filter0_b" x="-15" y="-15" width="120" height="120" filterUnits="userSpaceOnUse" color-interpolation-filters="sRGB">
<feFlood flood-opacity="0" result="BackgroundImageFix"/>
<feGaussianBlur in="BackgroundImage" stdDeviation="7.5"/>
<feComposite in2="SourceAlpha" operator="in" result="effect1_backgroundBlur"/>
<feBlend mode="normal" in="SourceGraphic" in2="effect1_backgroundBlur" result="shape"/>
</filter>
<filter id="filter1_f" x="21.5" y="19.4246" width="47.7547" height="50.3019" filterUnits="userSpaceOnUse" color-interpolation-filters="sRGB">
<feFlood flood-opacity="0" result="BackgroundImageFix"/>
<feBlend mode="normal" in="SourceGraphic" in2="BackgroundImageFix" result="shape"/>
<feGaussianBlur stdDeviation="1.5" result="effect1_foregroundBlur"/>
</filter>
</defs>
</svg>
