<svg width="105" height="111" viewBox="0 0 105 111" fill="none" xmlns="http://www.w3.org/2000/svg">
<g filter="url(#filter0_f)">
<path d="M21.0603 77.5714H17.1608V34.4095H21.0603M21.0603 77.5714V34.4095M21.0603 77.5714C24.1525 77.5714 28.9471 77.5714 34.2211 77.5714M21.0603 34.4095V21.1667M71.2663 37.3524V58.9333C71.2663 66.781 64.9296 77.5714 54.6935 77.5714C48.8848 77.5714 41.1403 77.5714 34.2211 77.5714M71.2663 37.3524C68.3417 35.3905 63.9548 33.919 58.1055 33.919C52.2563 33.919 39.7454 33.919 34.2211 33.919M71.2663 37.3524C76.3357 40.099 80.796 44.219 83.4523 48.6333M34.2211 33.919V21.1667M34.2211 33.919V77.5714M63.4673 21.1667C62.4925 20.1857 58.7879 17.7333 55.6683 17.7333C52.5487 17.7333 40.3953 17.7333 34.2211 17.7333V21.1667M63.4673 21.1667C60.7377 21.1667 42.5075 21.1667 34.2211 21.1667M63.4673 21.1667C70.2915 22.1476 76.6281 25.0905 83.1433 29.0143C85.8459 30.9762 92.1286 36.4695 95.6382 42.7476C100.025 50.5952 101 58.4429 101 64.3286C101 70.2143 99.0502 79.5333 96.1256 84.4381C93.201 89.3429 89.7889 93.2667 85.8894 96.7C81.9899 100.133 75.1658 103.567 71.2663 105.038C67.3668 106.51 63.4673 107 60.5427 107C58.203 107 33.2462 107 21.0603 107V90.3238M21.0603 90.3238C14.5272 90.3238 8.517 90.3238 4 90.3238V21.1667H21.0603M21.0603 90.3238C25.3148 90.3238 29.791 90.3238 34.2211 90.3238M34.2211 90.3238C44.2773 90.3238 54.0958 90.3238 60.5427 90.3238C74.191 90.3238 83.4523 75.1191 83.4523 62.8571C83.4523 59.5675 83.4567 54.0579 83.4523 48.6333M34.2211 90.3238V93.7571C40.3953 93.7571 54.3035 93.7571 60.5427 93.7571C69.3166 93.7571 78.8703 86.8905 82.9648 80.0238C87.0593 73.1571 87.8392 69.2333 87.3518 60.8952C87.151 57.4619 85.8133 52.5571 83.4523 48.6333M83.4523 48.6333C83.4454 40.3086 83.3813 31.5195 82.9648 26.0714C82.0649 14.3 70.2915 6.24218 65.9045 4.98095C64.7672 4.65397 62.2975 4 59.5678 4H21.0603V21.1667" stroke="#087DEA"/>
</g>
<path d="M21.0603 77.5714H17.1608V34.4095H21.0603M21.0603 77.5714V34.4095M21.0603 77.5714C24.1525 77.5714 28.9471 77.5714 34.2211 77.5714M21.0603 34.4095V21.1667M71.2663 37.3524V58.9333C71.2663 66.781 64.9296 77.5714 54.6935 77.5714C48.8848 77.5714 41.1403 77.5714 34.2211 77.5714M71.2663 37.3524C68.3417 35.3905 63.9548 33.919 58.1055 33.919C52.2563 33.919 39.7454 33.919 34.2211 33.919M71.2663 37.3524C76.3357 40.099 80.796 44.219 83.4523 48.6333M34.2211 33.919V21.1667M34.2211 33.919V77.5714M63.4673 21.1667C62.4925 20.1857 58.7879 17.7333 55.6683 17.7333C52.5487 17.7333 40.3953 17.7333 34.2211 17.7333V21.1667M63.4673 21.1667C60.7377 21.1667 42.5075 21.1667 34.2211 21.1667M63.4673 21.1667C70.2915 22.1476 76.6281 25.0905 83.1433 29.0143C85.8459 30.9762 92.1286 36.4695 95.6382 42.7476C100.025 50.5952 101 58.4429 101 64.3286C101 70.2143 99.0502 79.5333 96.1256 84.4381C93.201 89.3429 89.7889 93.2667 85.8894 96.7C81.9899 100.133 75.1658 103.567 71.2663 105.038C67.3668 106.51 63.4673 107 60.5427 107C58.203 107 33.2462 107 21.0603 107V90.3238M21.0603 90.3238C14.5272 90.3238 8.517 90.3238 4 90.3238V21.1667H21.0603M21.0603 90.3238C25.3148 90.3238 29.791 90.3238 34.2211 90.3238M34.2211 90.3238C44.2773 90.3238 54.0958 90.3238 60.5427 90.3238C74.191 90.3238 83.4523 75.1191 83.4523 62.8571C83.4523 59.5675 83.4567 54.0579 83.4523 48.6333M34.2211 90.3238V93.7571C40.3953 93.7571 54.3035 93.7571 60.5427 93.7571C69.3166 93.7571 78.8703 86.8905 82.9648 80.0238C87.0593 73.1571 87.8392 69.2333 87.3518 60.8952C87.151 57.4619 85.8133 52.5571 83.4523 48.6333M83.4523 48.6333C83.4454 40.3086 83.3813 31.5195 82.9648 26.0714C82.0649 14.3 70.2915 6.24218 65.9045 4.98095C64.7672 4.65397 62.2975 4 59.5678 4H21.0603V21.1667" stroke="#087DEA"/>
<defs>
<filter id="filter0_f" x="0.5" y="0.5" width="104" height="110" filterUnits="userSpaceOnUse" color-interpolation-filters="sRGB">
<feFlood flood-opacity="0" result="BackgroundImageFix"/>
<feBlend mode="normal" in="SourceGraphic" in2="BackgroundImageFix" result="shape"/>
<feGaussianBlur stdDeviation="1.5" result="effect1_foregroundBlur"/>
</filter>
</defs>
</svg>
