<svg width="57" height="52" viewBox="0 0 57 52" fill="none" xmlns="http://www.w3.org/2000/svg">
<path d="M3.96466 38.1476C3.42727 37.6311 2.98576 37.0239 2.64667 36.3339C1.15274 33.2938 0.327475 29.8878 0.260046 26.4841C0.192618 23.0803 0.882433 19.6443 2.25488 16.5475C2.69596 15.5523 3.34878 14.7148 4.19538 14.0584C4.98839 13.4435 5.93359 13.0151 6.92885 12.8195C7.9285 12.623 8.97129 12.6628 9.94445 12.9345C10.9822 13.2241 11.9083 13.7553 12.6969 14.5133C12.9422 14.7491 12.9895 15.1242 12.8104 15.4135L9.96432 20.0089C9.83544 20.2169 9.60984 20.3455 9.36515 20.3504L6.62885 20.4045C5.4298 24.2865 5.51274 28.4751 6.86452 32.3066L9.60082 32.2524C9.84552 32.2476 10.076 32.3672 10.213 32.5699L13.2388 37.049C13.4292 37.331 13.3968 37.7077 13.161 37.9529C12.403 38.7416 11.4987 39.309 10.4732 39.6396C9.51153 39.9495 8.47113 40.0305 7.46449 39.8738C6.4623 39.7178 5.50088 39.3272 4.68412 38.7441C4.42815 38.5615 4.18809 38.3623 3.96466 38.1476ZM11.2594 15.177C10.1087 14.292 8.66131 13.9498 7.20704 14.2356C5.57175 14.5569 4.24765 15.6126 3.57421 17.1322C0.935686 23.086 1.06967 29.8527 3.94182 35.6974C4.67486 37.1891 6.03968 38.1916 7.68648 38.448C9.15091 38.676 10.5836 38.2767 11.6983 37.3468L9.23692 33.7031L6.37925 33.7597C6.07515 33.7657 5.79997 33.5804 5.6912 33.2965C3.99377 28.8677 3.89649 23.9545 5.41726 19.462C5.51477 19.174 5.78237 18.9779 6.08644 18.9719L8.94411 18.9154L11.2594 15.177Z" fill="#DCE4E9"/>
<path d="M18.1567 23.65H19.6417V23.2C19.6417 22 20.6317 21.355 21.6067 21.355C22.5817 21.355 23.5567 22 23.5567 23.2C23.5567 24.175 23.0167 24.64 22.5067 25.15C20.7067 26.95 18.0067 28.225 18.0067 30.25V31H24.9067V29.515H19.8817C19.8817 28.675 21.7567 27.85 23.5567 26.05C24.1867 25.42 25.0567 24.55 25.0567 23.2C25.0567 21.1 23.4067 19.9 21.6067 19.9C19.8067 19.9 18.1567 21.25 18.1567 23.2V23.65ZM25.4997 28.15H30.4497V31H31.9497V28.15H33.1497V26.725H31.9497V20.05H29.9997C29.9997 20.05 28.1247 22.9 25.4997 26.725V28.15ZM27.1797 26.725C28.3797 25.015 29.5797 23.23 30.4497 21.94V26.725H27.1797ZM41.0968 19.6H40.0468L33.4468 31.6H34.4968L41.0968 19.6ZM48.4397 20.05H41.2397V21.535H46.8347C46.2197 22.87 44.5547 26.515 43.1147 30.7V31H44.6147C46.4147 25.45 48.4397 21.535 48.4397 21.535V20.05Z" fill="#DCE4E9"/>
<path d="M6 11V1H56V51H6V42" stroke="#DCE4E9"/>
</svg>
